<?xml version="1.0" encoding="utf-8"?>
<!-- Generator: Adobe Illustrator 18.0.0, SVG Export Plug-In . SVG Version: 6.00 Build 0)  -->
<!DOCTYPE svg PUBLIC "-//W3C//DTD SVG 1.1 Tiny//EN" "http://www.w3.org/Graphics/SVG/1.1/DTD/svg11-tiny.dtd">
<svg version="1.1" baseProfile="tiny" id="Layer_1" xmlns="http://www.w3.org/2000/svg" xmlns:xlink="http://www.w3.org/1999/xlink"
	 x="0px" y="0px" viewBox="0 0 803.5 202.9" xml:space="preserve">
<g>
	<path fill="#202126" d="M253.1,144.3v-82h18.5v82H253.1z"/>
	<path fill="#202126" d="M327.1,120.9h-1.8h-17.1v23.4h-18.5v-82h35.6c21.4,0,33.6,10.3,33.6,28.5c0,12.7-5.4,21.8-15.3,26.5
		l17.5,27.1h-21L327.1,120.9z M325.4,105.4c10.2,0,16.1-4.7,16.1-14.1c0-9.1-5.9-13.7-16.1-13.7h-17.1v27.8H325.4z"/>
	<path fill="#202126" d="M456.9,103.3c0,23.7-19,41.8-44.1,41.8c-25.1,0-44.1-18-44.1-41.8c0-23.9,19-41.6,44.1-41.6
		C437.9,61.7,456.9,79.5,456.9,103.3z M387.7,103.3c0,14.4,11.6,25.7,25.3,25.7c13.7,0,24.8-11.2,24.8-25.7
		c0-14.4-11.1-25.4-24.8-25.4C399.2,77.9,387.7,88.9,387.7,103.3z"/>
	<path fill="#202126" d="M526.5,144.3l-39.7-52.6v52.6H469v-82h16.9l39.8,52.7V62.3h17.6v82H526.5z"/>
	<path fill="#202126" d="M579.9,77.6v20.2h37v15.5h-37v31.1h-18.5v-82h58.9l-0.1,15.3H579.9z"/>
	<path fill="#202126" d="M631.1,144.3v-82h18.5v82H631.1z"/>
	<path fill="#202126" d="M728.9,70.4l-7.1,15.3c-8.7-5.2-19-8.4-25.5-8.4c-6.2,0-10.4,2.2-10.4,6.7c0,15.1,43.7,6.7,43.6,36.2
		c0,16.1-13.9,24.7-32.1,24.7c-13.5,0-27-5.2-36.2-13l7.4-15.1c8.4,7.5,20.4,12.3,29.1,12.3c7.6,0,12.2-2.8,12.2-7.9
		c0-15.5-43.7-6.4-43.7-35.5c0-14.9,12.8-24.3,31.8-24.3C709.3,61.5,720.7,65,728.9,70.4z"/>
	<path fill="#202126" d="M777.8,78v66.3h-18.5V78h-25V62.3h68.5V78H777.8z"/>
</g>
<g>
	<polygon fill="#202126" points="103.9,43.1 120.6,59.8 121.1,60.3 152.7,91.9 135.1,109.6 103.4,78 102.9,77.5 86.3,60.8 	"/>
	<polygon fill="#202126" points="79.2,67.9 95.8,84.5 96.4,85 128,116.7 110.3,134.4 78.7,102.7 78.2,102.2 61.5,85.6 	"/>
	<polygon fill="#202126" points="54.4,92.6 71.1,109.3 71.6,109.8 103.2,141.4 85.6,159.1 53.9,127.5 53.4,127 36.8,110.3 	"/>
	<polygon fill="#202126" points="166.2,92.6 110.3,36.8 117.3,29.8 117.5,29.6 129.4,17.7 202.9,91.2 110.3,183.8 92.6,166.2 	"/>
	<polygon fill="#348099" points="98.9,12.9 98.9,12.9 90.4,21.3 72.8,38.9 0,111.7 91.2,202.9 101.1,193 19.1,111 120.9,9.2 
		111.7,0 	"/>
</g>
<g>
</g>
<g>
</g>
<g>
</g>
<g>
</g>
<g>
</g>
<g>
</g>
</svg>
